<?xml version="1.0" encoding="UTF-8"?>
<svg xmlns="http://www.w3.org/2000/svg" width="1200" height="680" viewBox="0 0 1200 680" role="img" aria-labelledby="title desc">
  <title id="title">电气设备手册翻译</title>
  <desc id="desc">技术翻译、翻译服务: delivery workflow with quality checkpoints</desc>
  <rect width="1200" height="680" fill="#f8fafc"/>
  <rect x="40" y="40" width="1120" height="600" rx="18" fill="#ffffff" stroke="#cbd5e1" stroke-width="2"/>
  <text x="80" y="105" font-family="Arial, 'Microsoft YaHei', sans-serif" font-size="34" font-weight="700" fill="#0f172a">电气设备手册翻译</text>
  <text x="80" y="145" font-family="Arial, 'Microsoft YaHei', sans-serif" font-size="18" fill="#475569">技术翻译、翻译服务: delivery workflow with quality checkpoints</text>
  
  <rect x="120" y="220" width="900" height="52" rx="12" fill="#f8fafc" stroke="#cbd5e1"/>
  <rect x="120" y="220" width="14" height="52" rx="7" fill="#2563eb"/>
  <text x="160" y="253" font-family="Arial, 'Microsoft YaHei', sans-serif" font-size="22" font-weight="700" fill="#0f172a">Input</text>
  <text x="330" y="253" font-family="Arial, 'Microsoft YaHei', sans-serif" font-size="17" fill="#475569">Collect files and usage scenario</text>
  <path d="M 1040 246 L 1084 246 L 1084 318 L 1044 318" fill="none" stroke="#94a3b8" stroke-width="3" stroke-linecap="round"/><path d="M 1054 308 L 1040 318 L 1054 328" fill="none" stroke="#94a3b8" stroke-width="3" stroke-linecap="round" stroke-linejoin="round"/>

  <rect x="120" y="292" width="900" height="52" rx="12" fill="#f8fafc" stroke="#cbd5e1"/>
  <rect x="120" y="292" width="14" height="52" rx="7" fill="#0891b2"/>
  <text x="160" y="325" font-family="Arial, 'Microsoft YaHei', sans-serif" font-size="22" font-weight="700" fill="#0f172a">Assess</text>
  <text x="330" y="325" font-family="Arial, 'Microsoft YaHei', sans-serif" font-size="17" fill="#475569">Confirm receiver, deadline, and risk</text>
  <path d="M 1040 318 L 1084 318 L 1084 390 L 1044 390" fill="none" stroke="#94a3b8" stroke-width="3" stroke-linecap="round"/><path d="M 1054 380 L 1040 390 L 1054 400" fill="none" stroke="#94a3b8" stroke-width="3" stroke-linecap="round" stroke-linejoin="round"/>

  <rect x="120" y="364" width="900" height="52" rx="12" fill="#f8fafc" stroke="#cbd5e1"/>
  <rect x="120" y="364" width="14" height="52" rx="7" fill="#059669"/>
  <text x="160" y="397" font-family="Arial, 'Microsoft YaHei', sans-serif" font-size="22" font-weight="700" fill="#0f172a">Translate</text>
  <text x="330" y="397" font-family="Arial, 'Microsoft YaHei', sans-serif" font-size="17" fill="#475569">Apply glossary and context rules</text>
  <path d="M 1040 390 L 1084 390 L 1084 462 L 1044 462" fill="none" stroke="#94a3b8" stroke-width="3" stroke-linecap="round"/><path d="M 1054 452 L 1040 462 L 1054 472" fill="none" stroke="#94a3b8" stroke-width="3" stroke-linecap="round" stroke-linejoin="round"/>

  <rect x="120" y="436" width="900" height="52" rx="12" fill="#f8fafc" stroke="#cbd5e1"/>
  <rect x="120" y="436" width="14" height="52" rx="7" fill="#d97706"/>
  <text x="160" y="469" font-family="Arial, 'Microsoft YaHei', sans-serif" font-size="22" font-weight="700" fill="#0f172a">Review</text>
  <text x="330" y="469" font-family="Arial, 'Microsoft YaHei', sans-serif" font-size="17" fill="#475569">Check terms, names, dates, and format</text>
  <path d="M 1040 462 L 1084 462 L 1084 534 L 1044 534" fill="none" stroke="#94a3b8" stroke-width="3" stroke-linecap="round"/><path d="M 1054 524 L 1040 534 L 1054 544" fill="none" stroke="#94a3b8" stroke-width="3" stroke-linecap="round" stroke-linejoin="round"/>

  <rect x="120" y="508" width="900" height="52" rx="12" fill="#f8fafc" stroke="#cbd5e1"/>
  <rect x="120" y="508" width="14" height="52" rx="7" fill="#7c3aed"/>
  <text x="160" y="541" font-family="Arial, 'Microsoft YaHei', sans-serif" font-size="22" font-weight="700" fill="#0f172a">Deliver</text>
  <text x="330" y="541" font-family="Arial, 'Microsoft YaHei', sans-serif" font-size="17" fill="#475569">Provide usable files and revision notes</text>
  
</svg>
