<svg xmlns="http://www.w3.org/2000/svg" width="1200" height="630" viewBox="0 0 1200 630" role="img" aria-label="北京全球博译翻译公司">
  <defs>
    <linearGradient id="bg" x1="0" x2="1" y1="0" y2="1">
      <stop offset="0" stop-color="#082f72"/>
      <stop offset="0.58" stop-color="#123f87"/>
      <stop offset="1" stop-color="#0891b2"/>
    </linearGradient>
    <linearGradient id="teal" x1="0" x2="1" y1="0" y2="1">
      <stop offset="0" stop-color="#22d3ee"/>
      <stop offset="1" stop-color="#0ea5a4"/>
    </linearGradient>
  </defs>
  <rect width="1200" height="630" fill="url(#bg)"/>
  <path d="M0 500 C220 420 360 620 610 510 C810 420 950 460 1200 340 L1200 630 L0 630 Z" fill="#031b3f" opacity="0.42"/>
  <g opacity="0.16" stroke="#ffffff" stroke-width="1">
    <path d="M0 90H1200M0 180H1200M0 270H1200M0 360H1200M0 450H1200M0 540H1200"/>
    <path d="M120 0V630M240 0V630M360 0V630M480 0V630M600 0V630M720 0V630M840 0V630M960 0V630M1080 0V630"/>
  </g>
  <g transform="translate(90 132)">
    <circle cx="150" cy="150" r="124" fill="none" stroke="#ffffff" stroke-width="28" opacity="0.95"/>
    <path d="M52 82 C96 28 174 16 240 56" fill="none" stroke="#ffffff" stroke-width="16" stroke-linecap="round"/>
    <path d="M50 224 C100 276 195 286 250 220" fill="none" stroke="url(#teal)" stroke-width="28" stroke-linecap="round"/>
    <circle cx="150" cy="150" r="82" fill="none" stroke="#ffffff" stroke-width="10"/>
    <path d="M68 150H232M150 68V232M94 88C124 108 176 108 206 88M94 212C124 192 176 192 206 212" fill="none" stroke="#ffffff" stroke-width="8" stroke-linecap="round"/>
    <path d="M118 179 L148 211 L202 132" fill="none" stroke="url(#teal)" stroke-width="18" stroke-linecap="round" stroke-linejoin="round"/>
  </g>
  <g fill="#ffffff">
    <text x="360" y="235" font-family="Arial, 'Microsoft YaHei', sans-serif" font-size="82" font-weight="800" letter-spacing="4">全球博译</text>
    <text x="366" y="315" font-family="Arial, sans-serif" font-size="42" font-weight="700" letter-spacing="12">PRO COMPLIANCE</text>
    <text x="366" y="400" font-family="Arial, 'Microsoft YaHei', sans-serif" font-size="30" font-weight="600" opacity="0.92">跨境合规翻译 · 技术本地化 · 法律与专利文档翻译</text>
  </g>
  <rect x="360" y="446" width="500" height="1" fill="#ffffff" opacity="0.32"/>
  <text x="360" y="500" fill="#c7f9ff" font-family="Arial, 'Microsoft YaHei', sans-serif" font-size="24" font-weight="600">qqbytop.com</text>
</svg>
