<svg xmlns="http://www.w3.org/2000/svg" viewBox="0 0 760 180" role="img" aria-labelledby="title desc">
  <title id="title">全球博译 Pro Compliance</title>
  <desc id="desc">北京全球博译翻译公司网站标识浅色版</desc>
  <defs>
    <linearGradient id="brandBlue" x1="0" x2="1" y1="0" y2="1">
      <stop offset="0%" stop-color="#60a5fa"/>
      <stop offset="100%" stop-color="#dbeafe"/>
    </linearGradient>
    <linearGradient id="brandCyan" x1="0" x2="1" y1="0" y2="1">
      <stop offset="0%" stop-color="#22d3ee"/>
      <stop offset="100%" stop-color="#06b6d4"/>
    </linearGradient>
  </defs>

  <g transform="translate(24 18)">
    <path d="M78 2c41 0 75 21 94 52-20-18-47-29-78-29-56 0-101 43-101 96 0 10 2 20 5 30-23-16-38-42-38-72C-40 36 13 2 78 2Z" fill="url(#brandBlue)" transform="translate(40 0)"/>
    <path d="M2 112c25 35 68 56 116 56 42 0 80-16 106-42-16 42-57 71-106 71-55 0-103-37-116-85Z" fill="url(#brandCyan)" transform="translate(0 -28)"/>
    <circle cx="118" cy="82" r="58" fill="none" stroke="#dbeafe" stroke-width="7"/>
    <path d="M60 82h116M118 24c16 16 25 36 25 58s-9 42-25 58M118 24c-16 16-25 36-25 58s9 42 25 58M76 50c22 12 62 12 84 0M76 114c22-12 62-12 84 0" fill="none" stroke="#bfdbfe" stroke-linecap="round" stroke-width="5"/>
    <path d="M121 83c22 0 42-8 58-22v44c0 34-21 58-58 75-37-17-58-41-58-75V61c16 14 36 22 58 22Z" fill="#0f172a" stroke="#dbeafe" stroke-width="7"/>
    <path d="m98 117 22 23 47-55" fill="none" stroke="#22d3ee" stroke-linecap="round" stroke-linejoin="round" stroke-width="12"/>
  </g>

  <g fill="#f8fafc">
    <text x="270" y="96" font-family="Microsoft YaHei, PingFang SC, Noto Sans SC, Arial, sans-serif" font-size="76" font-weight="800" letter-spacing="4">全球博译</text>
    <text x="276" y="148" font-family="Arial, Helvetica, sans-serif" font-size="36" font-weight="700" letter-spacing="14">PRO COMPLIANCE</text>
  </g>
</svg>
